<?xml version="1.0" encoding="UTF-8" standalone="no"?>
<svg
   viewBox="-4 -2 32 32"
   version="1.1"
   id="svg277"
   sodipodi:docname="favicon.svg"
   inkscape:version="1.2 (dc2aedaf03, 2022-05-15)"
   inkscape:export-filename="favicon.png"
   inkscape:export-xdpi="1536"
   inkscape:export-ydpi="1536"
   xmlns:inkscape="http://www.inkscape.org/namespaces/inkscape"
   xmlns:sodipodi="http://sodipodi.sourceforge.net/DTD/sodipodi-0.dtd"
   xmlns="http://www.w3.org/2000/svg"
   xmlns:svg="http://www.w3.org/2000/svg">
  <defs
     id="defs281" />
  <sodipodi:namedview
     id="namedview279"
     pagecolor="#505050"
     bordercolor="#eeeeee"
     borderopacity="1"
     inkscape:showpageshadow="0"
     inkscape:pageopacity="0"
     inkscape:pagecheckerboard="0"
     inkscape:deskcolor="#505050"
     showgrid="false"
     inkscape:zoom="25.90625"
     inkscape:cx="10.499397"
     inkscape:cy="9.8431846"
     inkscape:window-width="1920"
     inkscape:window-height="1009"
     inkscape:window-x="318"
     inkscape:window-y="1072"
     inkscape:window-maximized="1"
     inkscape:current-layer="svg277" />
  <g
     id="Layer_1"
     transform="translate(-4, -2)"
     style="enable-background:new 0 0 32 32;fill:#ff5722;fill-opacity:1">
    <g
       id="Bus"
       style="fill:#ff5722;fill-opacity:1">
      <path
         d="M24, 2L8, 2C5.8, 2 4, 3.8 4, 6L4, 24C4, 25.1 4.9, 26 6, 26L6, 26L6, 29C6, 29.5 6.4, 30 7, 30L9, 30C9.6, 30 10, 29.5 10, 29L10, 26L22, 26L22, 29C22, 29.5 22.5, 30 23, 30L25, 30C25.5, 30 26, 29.5 26, 29L26, 26L26, 26C27.1, 26 28, 25.1 28, 24L28, 6C28, 3.8 26.2, 2 24, 2zM8, 6L24, 6L24, 14L8, 14L8, 6zM10, 22C8.9, 22 8, 21.1 8, 20C8, 18.9 8.9, 18 10, 18C11.1, 18 12, 18.9 12, 20C12, 21.1 11.1, 22 10, 22zM20, 20C20, 18.9 20.9, 18 22, 18C23.1, 18 24, 18.9 24, 20C24, 21.1 23.1, 22 22, 22C20.9, 22 20, 21.1 20, 20z"
         fill="#FFB115"
         class="Yellow"
         id="path273"
         style="fill:#ff5722;fill-opacity:1" />
    </g>
  </g>
</svg>
